<?xml version="1.0" encoding="UTF-8" standalone="no"?>
<!-- Created with Inkscape (http://www.inkscape.org/) -->

<svg
   width="209.41382mm"
   height="50.799999mm"
   viewBox="0 0 209.41382 50.799998"
   version="1.1"
   id="svg5"
   xmlns="http://www.w3.org/2000/svg"
   xmlns:svg="http://www.w3.org/2000/svg">
  <defs
     id="defs2" />
  <g
     id="layer1"
     transform="translate(-42.333333,0.79575535)">
    <path
       id="rect118"
       style="fill:#bee8e5;stroke-width:10;stroke-linecap:round;stroke-dashoffset:12.0945;stop-color:#000000"
       d="M 59.465104,1.9952883 C 58.62597,3.447303 58.183955,5.0946906 58.183528,6.7717416 58.183079,11.027465 60.998463,14.770074 65.0875,15.949476 v 2.658236 H 49.564933 c -4.006153,0 -7.2316,3.225447 -7.2316,7.2316 v 16.933333 c 0,4.006153 3.225447,7.2316 7.2316,7.2316 h 36.3368 c 4.006153,0 7.2316,-3.225447 7.2316,-7.2316 V 25.839312 c 0,-4.006153 -3.225447,-7.2316 -7.2316,-7.2316 H 70.379166 v -2.657719 c 4.089221,-1.179455 6.904652,-4.922336 6.903972,-9.1782514 -1.07e-4,-1.673112 -0.439732,-3.3168571 -1.274858,-4.7666348 0.04643,0.3581317 0.06956,0.7189071 0.06925,1.0800375 -2.45e-4,4.6082503 -3.735941,8.3439497 -8.344194,8.3441937 -4.608249,-2.45e-4 -8.343949,-3.7359444 -8.344194,-8.3441937 0.0015,-0.3645544 0.02687,-0.7286204 0.07596,-1.089856 z M 55.033333,24.281267 c 2.083105,0 4.638498,1.490005 5.18418,3.466455 H 53.975 v 6.879167 h 6.35 v 2.295467 c 0,2.345246 -2.94642,4.233333 -5.291667,4.233333 -2.345238,0 -5.291667,-1.888087 -5.291667,-4.233333 V 28.5146 c 0,-2.345246 2.946429,-4.233333 5.291667,-4.233333 z m 25.4,0 c 2.083107,0 4.638498,1.490004 5.18418,3.466455 H 79.03962 v 6.879167 H 85.725 v 2.295467 c 0,2.345248 -2.946418,4.233333 -5.291667,4.233333 -2.345241,0 -5.291667,-1.888085 -5.291667,-4.233333 V 28.5146 c 0,-2.345248 2.946426,-4.233333 5.291667,-4.233333 z M 63.472094,41.508123 h 0.149345 c 0.865554,0 1.607397,0.511013 1.941484,1.249019 h 4.34082 c 0.334089,-0.738007 1.075929,-1.249019 1.941484,-1.249019 h 0.149345 c 1.180307,0 2.130102,0.950311 2.130102,2.130619 v 1.248502 c 0,0.07377 -0.0036,0.146796 -0.01085,0.218592 -0.0072,0.0718 -0.01789,0.142402 -0.03204,0.211873 -0.02829,0.138942 -0.07026,0.272961 -0.124024,0.400493 -0.02682,0.06363 -0.05676,0.125774 -0.0894,0.186035 v 5.16e-4 c -0.03265,0.06026 -0.06833,0.11864 -0.106453,0.175184 v 5.16e-4 c -0.03821,0.05665 -0.07912,0.111243 -0.122474,0.163815 -0.04335,0.05257 -0.08881,0.102758 -0.136942,0.150895 -0.04814,0.04814 -0.09884,0.09411 -0.151412,0.137459 -0.05257,0.04335 -0.10716,0.08426 -0.163814,0.122473 -0.05665,0.03821 -0.115314,0.07373 -0.1757,0.106454 -0.05871,0.03181 -0.11948,0.06052 -0.181384,0.08682 -0.0031,0.0013 -0.0062,0.0028 -0.0093,0.0041 -0.126311,0.05294 -0.258377,0.09449 -0.395842,0.122473 -0.06881,0.01401 -0.139229,0.02479 -0.210323,0.03204 -5.14e-4,5.2e-5 -9.5e-4,-5.2e-5 -0.0016,0 -3.41e-4,3.4e-5 -7.26e-4,-3.5e-5 -0.001,0 -0.07163,0.0072 -0.143964,0.01085 -0.217557,0.01085 h -0.149345 -8.223788 -0.149345 c -0.07359,0 -0.145927,-0.0036 -0.217557,-0.01085 h -5.17e-4 c -6.81e-4,-6.9e-5 -0.0014,6.9e-5 -0.0021,0 -0.07109,-0.0072 -0.141511,-0.01803 -0.210323,-0.03204 -0.137465,-0.02799 -0.269532,-0.06954 -0.395842,-0.122473 -0.0014,-5.66e-4 -0.0028,-9.31e-4 -0.0041,-0.0016 h -5.17e-4 c -0.0016,-6.92e-4 -0.003,-0.0019 -0.0047,-0.0026 -0.06191,-0.0263 -0.12268,-0.055 -0.181384,-0.08682 -0.06039,-0.03272 -0.119046,-0.06824 -0.1757,-0.106454 -0.05665,-0.03821 -0.111242,-0.07912 -0.163814,-0.122473 -0.05257,-0.04335 -0.103275,-0.08932 -0.151412,-0.137459 -0.04814,-0.04814 -0.09359,-0.09832 -0.136942,-0.150895 -0.04335,-0.05257 -0.08426,-0.10716 -0.122474,-0.163815 v -5.16e-4 c -0.03812,-0.05654 -0.0738,-0.114926 -0.106453,-0.175184 v -5.16e-4 c -0.03264,-0.06026 -0.06258,-0.122411 -0.0894,-0.186035 -0.05376,-0.127532 -0.09574,-0.261551 -0.124024,-0.400493 -0.01414,-0.06947 -0.02479,-0.140077 -0.03204,-0.211873 -0.0072,-0.0718 -0.01085,-0.144823 -0.01085,-0.218592 v -1.248402 c 0,-1.180307 0.949795,-2.130619 2.130102,-2.130619 z" />
    <g
       aria-label="deen.ai"
       transform="scale(0.99115188,1.0089271)"
       id="text1758"
       style="font-size:45.5467px;line-height:1.25;font-family:Kanit;-inkscape-font-specification:Kanit;letter-spacing:0px;word-spacing:0px;fill:#bee8e5;stroke-width:0.264583">
      <path
         d="m 112.52687,49.561798 q -3.05163,0 -5.32897,-1.002028 -2.23178,-1.047574 -3.50709,-3.370455 -1.22976,-2.322882 -1.22976,-6.194351 0,-3.962563 1.41195,-6.604272 1.41194,-2.641708 3.78037,-3.962563 2.36843,-1.366401 5.14678,-1.366401 1.50304,0 2.96053,0.318827 1.50304,0.318827 2.59617,0.910934 v -9.883634 h 8.56278 v 30.698476 h -7.42412 l -0.40992,-1.685228 q -1.2753,1.002027 -2.86944,1.594134 -1.54859,0.546561 -3.68928,0.546561 z m 2.45952,-6.194351 q 1.95851,0 3.37046,-1.320855 v -7.651845 q -1.27531,-1.138668 -3.37046,-1.138668 -1.68523,0 -2.7328,1.503042 -1.04758,1.503041 -1.04758,4.281389 0,2.732802 0.91094,3.552643 0.91093,0.774294 2.86944,0.774294 z"
         style="font-weight:bold;-inkscape-font-specification:'Kanit Bold'"
         id="path1848" />
      <path
         d="m 142.45097,49.561798 q -3.78038,0 -6.69537,-1.229761 -2.86944,-1.275308 -4.50912,-3.780376 -1.59413,-2.505069 -1.59413,-6.194351 0,-5.146777 2.91498,-8.198406 2.91499,-3.097176 8.69942,-3.097176 5.28342,0 8.24396,2.687256 3.00608,2.687255 3.00608,7.333018 v 3.780376 h -14.98487 q 0.59211,1.730775 2.32289,2.459522 1.73077,0.728747 4.69131,0.728747 1.86741,0 3.73483,-0.318827 1.91296,-0.364373 3.05162,-0.81984 v 5.146777 q -3.18826,1.503041 -8.8816,1.503041 z m -4.91905,-13.345183 h 7.6063 v -0.774294 q 0,-1.275308 -0.81984,-2.095148 -0.77429,-0.819841 -2.77835,-0.819841 -2.23178,0 -3.14272,0.956481 -0.86539,0.910934 -0.86539,2.732802 z"
         style="font-weight:bold;-inkscape-font-specification:'Kanit Bold'"
         id="path1850" />
      <path
         d="m 167.59266,49.561798 q -3.78037,0 -6.69536,-1.229761 -2.86944,-1.275308 -4.50913,-3.780376 -1.59413,-2.505069 -1.59413,-6.194351 0,-5.146777 2.91499,-8.198406 2.91499,-3.097176 8.69942,-3.097176 5.28342,0 8.24395,2.687256 3.00608,2.687255 3.00608,7.333018 v 3.780376 h -14.98486 q 0.59211,1.730775 2.32288,2.459522 1.73078,0.728747 4.69131,0.728747 1.86742,0 3.73483,-0.318827 1.91296,-0.364373 3.05163,-0.81984 v 5.146777 q -3.18827,1.503041 -8.88161,1.503041 z m -4.91904,-13.345183 h 7.6063 v -0.774294 q 0,-1.275308 -0.81984,-2.095148 -0.7743,-0.819841 -2.77835,-0.819841 -2.23179,0 -3.14272,0.956481 -0.86539,0.910934 -0.86539,2.732802 z"
         style="font-weight:bold;-inkscape-font-specification:'Kanit Bold'"
         id="path1852" />
      <path
         d="M 180.84667,49.106331 V 27.517195 h 8.01622 l 0.22773,1.639681 q 1.22976,-0.81984 3.23382,-1.457494 2.0496,-0.637654 4.37248,-0.637654 4.05365,0 5.92107,2.004055 1.86741,2.004055 1.86741,6.194351 v 13.846197 h -8.56278 V 36.125522 q 0,-1.457495 -0.63765,-2.095149 -0.63765,-0.637653 -2.23179,-0.637653 -0.95648,0 -2.00405,0.455467 -1.00203,0.455467 -1.63968,1.09312 v 14.165024 z"
         style="font-weight:bold;-inkscape-font-specification:'Kanit Bold'"
         id="path1854" />
      <path
         d="m 207.44586,49.106331 v -6.148805 h 6.74091 v 6.148805 z"
         style="font-weight:bold;-inkscape-font-specification:'Kanit Bold'"
         id="path1856" />
      <path
         d="m 224.11594,49.561798 q -2.0496,0 -3.82592,-0.728747 -1.73077,-0.728748 -2.77835,-2.277335 -1.04757,-1.548588 -1.04757,-3.917016 0,-3.416003 2.27733,-5.283418 2.27734,-1.912961 6.87756,-1.912961 h 5.60224 v -0.40992 q 0,-1.275308 -1.04757,-1.867415 -1.04758,-0.592107 -3.68929,-0.592107 -3.73483,0 -7.37856,1.138667 v -5.146777 q 1.63968,-0.637653 4.0992,-1.047574 2.45952,-0.455467 5.01014,-0.455467 5.14677,0 8.15286,2.095148 3.00608,2.095149 3.00608,6.649819 v 13.299636 h -7.46966 l -0.40992,-1.730775 q -1.13867,1.002028 -2.96054,1.594135 -1.77632,0.592107 -4.41803,0.592107 z m 2.91499,-5.010137 q 1.4575,0 2.45953,-0.501014 1.04757,-0.501013 1.73077,-1.229761 v -2.687255 h -4.14475 q -2.8239,0 -2.8239,2.231788 0,2.186242 2.77835,2.186242 z"
         style="font-weight:bold;-inkscape-font-specification:'Kanit Bold'"
         id="path1858" />
      <path
         d="m 244.74854,24.647753 v -6.194351 h 9.24598 v 6.194351 z m 0.6832,24.458578 V 33.757093 h -3.14272 l 0.72875,-6.239898 h 10.97675 v 21.589136 z"
         style="font-weight:bold;-inkscape-font-specification:'Kanit Bold'"
         id="path1860" />
    </g>
  </g>
</svg>
