<?xml version="1.0" encoding="UTF-8" standalone="no"?>
<!-- Created with Inkscape (http://www.inkscape.org/) -->

<svg
   width="50.799999mm"
   height="50.799999mm"
   viewBox="0 0 50.799999 50.799998"
   version="1.1"
   id="svg5"
   inkscape:version="1.2.2 (b0a8486, 2022-12-01)"
   sodipodi:docname="logo.svg"
   xmlns:inkscape="http://www.inkscape.org/namespaces/inkscape"
   xmlns:sodipodi="http://sodipodi.sourceforge.net/DTD/sodipodi-0.dtd"
   xmlns="http://www.w3.org/2000/svg"
   xmlns:svg="http://www.w3.org/2000/svg">
  <sodipodi:namedview
     id="namedview7"
     pagecolor="#505050"
     bordercolor="#eeeeee"
     borderopacity="1"
     inkscape:showpageshadow="0"
     inkscape:pageopacity="0"
     inkscape:pagecheckerboard="0"
     inkscape:deskcolor="#505050"
     inkscape:document-units="mm"
     showgrid="true"
     borderlayer="false"
     inkscape:zoom="1.9099422"
     inkscape:cx="143.19805"
     inkscape:cy="89.269715"
     inkscape:window-width="1892"
     inkscape:window-height="1016"
     inkscape:window-x="12"
     inkscape:window-y="12"
     inkscape:window-maximized="1"
     inkscape:current-layer="layer1">
    <inkscape:grid
       type="xygrid"
       id="grid120"
       originx="-42.333327"
       originy="-238.62259" />
  </sodipodi:namedview>
  <defs
     id="defs2" />
  <g
     inkscape:label="Layer 1"
     inkscape:groupmode="layer"
     id="layer1"
     transform="translate(-42.333333,-4.7863328)">
    <path
       id="rect118"
       style="fill:#bee8e5;stroke-width:10;stroke-linecap:round;stroke-dashoffset:12.0945;stop-color:#000000"
       d="M 59.465104 7.5773769 C 58.62597 9.0293916 58.183955 10.676779 58.183528 12.35383 C 58.183079 16.609553 60.998463 20.352162 65.0875 21.531564 L 65.0875 24.1898 L 49.564933 24.1898 C 45.55878 24.1898 42.333333 27.415247 42.333333 31.4214 L 42.333333 48.354733 C 42.333333 52.360886 45.55878 55.586333 49.564933 55.586333 L 85.901733 55.586333 C 89.907886 55.586333 93.133333 52.360886 93.133333 48.354733 L 93.133333 31.4214 C 93.133333 27.415247 89.907886 24.1898 85.901733 24.1898 L 70.379166 24.1898 L 70.379166 21.532081 C 74.468387 20.352626 77.283818 16.609745 77.283138 12.35383 C 77.283031 10.680718 76.843406 9.0369731 76.00828 7.5871954 C 76.05471 7.9453271 76.077837 8.3061025 76.077527 8.6672329 C 76.077282 13.275483 72.341586 17.011182 67.733333 17.011426 C 63.125084 17.011181 59.389384 13.275482 59.389139 8.6672329 C 59.390639 8.3026785 59.416004 7.9386125 59.465104 7.5773769 z M 55.033333 29.863355 C 57.116438 29.863355 59.671831 31.35336 60.217513 33.32981 L 53.975 33.32981 L 53.975 40.208977 L 60.325 40.208977 L 60.325 42.504444 C 60.325 44.84969 57.37858 46.737777 55.033333 46.737777 C 52.688095 46.737777 49.741666 44.84969 49.741666 42.504444 L 49.741666 34.096688 C 49.741666 31.751442 52.688095 29.863355 55.033333 29.863355 z M 80.433333 29.863355 C 82.51644 29.863355 85.071831 31.353359 85.617513 33.32981 L 79.03962 33.32981 L 79.03962 40.208977 L 85.725 40.208977 L 85.725 42.504444 C 85.725 44.849692 82.778582 46.737777 80.433333 46.737777 C 78.088092 46.737777 75.141666 44.849692 75.141666 42.504444 L 75.141666 34.096688 C 75.141666 31.75144 78.088092 29.863355 80.433333 29.863355 z M 63.472094 47.090211 L 63.621439 47.090211 C 64.486993 47.090211 65.228836 47.601224 65.562923 48.33923 L 69.903743 48.33923 C 70.237832 47.601223 70.979672 47.090211 71.845227 47.090211 L 71.994572 47.090211 C 73.174879 47.090211 74.124674 48.040522 74.124674 49.22083 L 74.124674 50.469332 C 74.124674 50.543102 74.121072 50.616128 74.113822 50.687924 C 74.106622 50.759724 74.095933 50.830326 74.081783 50.899797 C 74.053493 51.038739 74.011522 51.172758 73.957759 51.30029 C 73.930939 51.363919 73.900999 51.426064 73.868359 51.486325 L 73.868359 51.486841 C 73.835709 51.547101 73.800029 51.605481 73.761906 51.662025 L 73.761906 51.662541 C 73.723696 51.719191 73.682785 51.773784 73.639432 51.826356 C 73.596082 51.878926 73.550623 51.929114 73.50249 51.977251 C 73.45435 52.025391 73.40365 52.071361 73.351078 52.11471 C 73.298508 52.15806 73.243918 52.19897 73.187264 52.237183 C 73.130614 52.275393 73.07195 52.310913 73.011564 52.343637 C 72.952854 52.375447 72.892084 52.404153 72.83018 52.430453 C 72.82708 52.431753 72.823978 52.433287 72.820878 52.434587 C 72.694567 52.487527 72.562501 52.529077 72.425036 52.55706 C 72.356226 52.57107 72.285807 52.58185 72.214713 52.5891 C 72.214199 52.589152 72.213763 52.589048 72.213163 52.5891 C 72.212822 52.589134 72.212437 52.589065 72.212129 52.5891 C 72.140499 52.5963 72.068165 52.599952 71.994572 52.599952 L 71.845227 52.599952 L 63.621439 52.599952 L 63.472094 52.599952 C 63.398504 52.599952 63.326167 52.59635 63.254537 52.5891 L 63.25402 52.5891 C 63.253339 52.589031 63.252653 52.589169 63.251953 52.5891 C 63.180863 52.5819 63.110442 52.57107 63.04163 52.55706 C 62.904165 52.52907 62.772098 52.48752 62.645788 52.434587 C 62.644388 52.434021 62.642954 52.433656 62.641654 52.433037 L 62.641137 52.433037 C 62.639537 52.432345 62.638186 52.431153 62.636486 52.430453 C 62.574577 52.404153 62.513806 52.375457 62.455102 52.343637 C 62.394712 52.310917 62.336056 52.275397 62.279402 52.237183 C 62.222752 52.198973 62.16816 52.158063 62.115588 52.11471 C 62.063018 52.07136 62.012313 52.02539 61.964176 51.977251 C 61.916036 51.929111 61.870586 51.878931 61.827234 51.826356 C 61.783884 51.773786 61.742973 51.719196 61.70476 51.662541 L 61.70476 51.662025 C 61.66664 51.605485 61.630961 51.547099 61.598307 51.486841 L 61.598307 51.486325 C 61.565667 51.426065 61.535727 51.363914 61.508907 51.30029 C 61.455147 51.172758 61.413166 51.038739 61.384883 50.899797 C 61.370743 50.830327 61.360094 50.75972 61.352844 50.687924 C 61.345644 50.616124 61.341992 50.543101 61.341992 50.469332 L 61.341992 49.22083 C 61.341992 48.040523 62.291787 47.090211 63.472094 47.090211 z " />
  </g>
</svg>
