<?xml version="1.0" standalone="no"?>
<!DOCTYPE svg PUBLIC "-//W3C//DTD SVG 20010904//EN"
 "http://www.w3.org/TR/2001/REC-SVG-20010904/DTD/svg10.dtd">
<svg version="1.0" xmlns="http://www.w3.org/2000/svg"
 width="700.000000pt" height="700.000000pt" viewBox="0 0 700.000000 700.000000"
 preserveAspectRatio="xMidYMid meet">
<metadata>
Created by potrace 1.14, written by Peter Selinger 2001-2017
</metadata>
<g transform="translate(0.000000,700.000000) scale(0.100000,-0.100000)"
fill="#000000" stroke="none">
<path d="M2311 6518 c-151 -328 -167 -692 -45 -1017 24 -65 81 -186 96 -206 4
-5 31 -46 60 -90 136 -208 396 -404 648 -490 30 -11 57 -21 60 -23 10 -7 6
-362 -5 -363 -5 -1 -512 -2 -1125 -3 -613 -2 -1133 -6 -1155 -10 -221 -40
-399 -130 -544 -275 -80 -80 -98 -102 -146 -176 -67 -105 -124 -257 -144 -380
-11 -69 -10 -2616 2 -2655 3 -14 9 -38 13 -55 53 -274 266 -542 539 -678 53
-26 183 -69 250 -83 22 -4 1219 -9 2660 -11 2284 -2 2631 0 2703 13 380 68
688 350 787 721 8 28 18 64 22 80 4 15 8 608 9 1318 2 1300 2 1310 -30 1454
-11 48 -29 97 -64 171 -132 277 -391 479 -697 546 -73 16 -180 18 -1205 20
-619 1 -1127 2 -1130 3 -4 1 -5 341 -1 362 0 3 27 13 59 23 308 96 614 367
757 673 37 78 88 221 99 278 24 126 29 178 29 310 -1 186 -42 366 -124 542
-21 46 -39 83 -41 83 -2 0 -3 -62 -3 -137 -1 -375 -162 -696 -464 -923 -120
-90 -330 -183 -461 -204 -100 -16 -144 -19 -235 -19 -176 1 -329 39 -500 123
-295 146 -515 417 -596 734 -29 115 -34 155 -34 299 0 70 -1 127 -3 127 -2 0
-20 -37 -41 -82z m-454 -2983 c182 -23 404 -151 519 -300 39 -50 87 -143 81
-159 -3 -8 -118 -11 -428 -10 l-424 0 -1 -473 0 -473 71 -1 c38 0 235 0 438 0
l367 0 -2 -207 c-2 -114 -7 -214 -13 -222 -5 -8 -10 -17 -10 -20 0 -3 -13 -32
-29 -65 -32 -65 -152 -194 -221 -237 -105 -65 -197 -106 -273 -123 -12 -3 -32
-8 -44 -11 -13 -3 -59 -8 -104 -11 -321 -22 -697 228 -754 501 -7 36 -10 252
-8 687 3 591 4 637 22 684 27 73 80 150 144 212 185 176 427 259 669 228z
m3541 -9 c182 -38 374 -155 480 -293 43 -55 88 -153 74 -162 -5 -3 -209 -6
-451 -5 l-441 1 -1 -46 c-1 -61 -1 -838 0 -876 l1 -30 460 1 460 2 0 -177 c0
-127 -4 -194 -15 -236 -58 -220 -304 -418 -589 -472 -183 -35 -386 12 -576
132 -67 42 -184 163 -219 225 -60 108 -60 111 -60 785 -1 412 3 632 10 667 49
236 338 461 634 495 28 3 51 6 52 7 7 6 121 -5 181 -18z m-2368 -2372 c60 -25
109 -62 143 -110 l34 -46 294 0 294 0 14 24 c26 40 95 103 136 123 62 29 177
32 245 6 66 -25 130 -84 162 -150 20 -40 23 -65 26 -188 3 -115 0 -154 -14
-199 -22 -72 -86 -144 -156 -175 l-53 -24 -660 0 -660 0 -51 27 c-69 36 -127
104 -149 173 -13 44 -16 83 -13 198 3 125 6 148 27 190 52 106 149 165 271
165 42 0 90 -6 110 -14z"/>
</g>
</svg>
